<svg xmlns="http://www.w3.org/2000/svg" viewBox="0 0 600 300" xmlns:bx="https://boxy-svg.com">
  <rect x="-7.616" y="195.17" width="599.987" height="299.957" style="fill: rgb(95, 81, 185); transform-box: fill-box; transform-origin: 50% 50%;" transform="matrix(1, 0.000073, -0.000073, 1, 7.626945, -195.148905)"></rect>
  <rect x="340.293" y="497.61" width="550" height="250" rx="10" ry="10" style="transform-box: fill-box; transform-origin: 50% 50%; fill: rgb(106, 90, 205);" transform="matrix(1, -0.000035, 0.000035, 1, -315.292946, -472.61005)"></rect>
  <path d="M 184.503 519.239 H 336.777 A 23.863 23.863 0 0 1 360.64 543.102 V 695.376 A 23.863 23.863 0 0 1 336.777 719.239 H 184.503 A 23.863 23.863 0 0 1 160.64 695.376 V 543.102 A 23.863 23.863 0 0 1 184.503 519.239 Z M 184.692 555.128 V 683.35 A 11.837 11.837 0 0 0 196.529 695.187 H 324.751 A 11.837 11.837 0 0 0 336.588 683.35 V 555.128 A 11.837 11.837 0 0 0 324.751 543.291 H 196.529 A 11.837 11.837 0 0 0 184.692 555.128 Z" bx:shape="frame 160.64 519.239 200 200 24.052 24.052 23.863 23.863 23.863 23.863 1@4d2ec52b" style="fill: rgb(255, 255, 255); transform-box: fill-box; transform-origin: 50% 50%;" transform="matrix(1, 0.000052, -0.000052, 1, 39.359975, -469.239055)"></path>
  <rect x="325.797" y="809.989" width="125" height="125" rx="10" ry="10" style="fill: rgb(255, 255, 255); transform-origin: 387.208px 872.492px;" transform="matrix(1, -0.000017, 0.000017, 1, -88.297007, -722.489087)"></rect>
</svg>